<?xml version="1.0" encoding="utf-8"?>
<!-- Generator: Adobe Illustrator 21.0.1, SVG Export Plug-In . SVG Version: 6.00 Build 0)  -->
<svg version="1.1" id="Layer_1" xmlns="http://www.w3.org/2000/svg" xmlns:xlink="http://www.w3.org/1999/xlink" x="0px" y="0px"
	 viewBox="0 0 283.459991 283.459991" style="enable-background:new 0 0 283.459991 283.459991;" xml:space="preserve">
<style type="text/css">
	.st0{fill:#FFBF31;}
	.st1{fill:#CE1126;}
	.st2{fill:#006B3F;}
</style>
<g>
	<path class="st0" d="M109.124771,174.117676l-0.004333-0.052612h-0.039978
		C109.095718,174.082153,109.109451,174.100647,109.124771,174.117676z"/>
	<path class="st1" d="M164.310623,115.782898c0.029053-0.063171,0.07489-0.137024,0.1073-0.202332h-0.178345
		C164.282852,115.710388,164.310623,115.782898,164.310623,115.782898z"/>
	<g>
		<path class="st1" d="M191.465652,78.070572l1.077148-6.023804c0,0-4.575073-2.014587-3.646729-5.242126l3.241943,2.548523
			l0.20929-4.526123c0,0-2.578857-2.576237-1.861511-3.855045l2.045227,1.243286c0,0,2.974243-12.772888,5.604553-16.602844
			c0,0-9.816711,1.632019-14.070496,13.687683C184.065079,59.300121,177.753555,71.069656,191.465652,78.070572z"/>
		<path class="st1" d="M184.153885,97.443985l4.622864-4.009521c-13.034424-8.19342-19.912292,3.254028-19.912292,3.254028
			c-7.479614,8.986816-5.088196,17.502136-4.624878,18.89209h0.178345c2.131836-4.297791,11.284546-13.112854,11.284546-13.112854
			l-2.114868-1.119934c0.731506-1.270935,4.264526-0.374756,4.264526-0.374756l3.780701-2.497559l-3.848755-1.479919
			C180.080826,94.545792,184.153885,97.443985,184.153885,97.443985z"/>
		<path class="st1" d="M163.619705,85.435318c1.355164-1.226379,5.20105,1.19281,5.20105,1.19281l5.442688-1.510498
			l-3.99707-3.232666c3.664795-2.023376,7.38208,2.977356,7.38208,2.977356l7.021484-2.980164
			c-12.311218-14.720642-24.863159-3.785706-24.863159-3.785706c-13.470276,8.513245-12.730225,20.895996-12.730225,20.895996
			c3.924622-4.258911,18.621521-11.417114,18.621521-11.417114L163.619705,85.435318z"/>
		<path class="st1" d="M204.264481,78.786331c0,0-1.579529-4.039551,0.966919-5.45575l0.432861,3.551758l2.900391-2.654602
			c0,0-0.008545-3.162903,1.215393-3.510132l0.495972,2.016357c0,0,9.648743-6.032776,13.610779-6.777466
			c0,0-7.035339-5.006474-17.031189-0.197632c0,0-11.08606,3.372925-6.941589,16.07196L204.264481,78.786331z"/>
		<path class="st1" d="M196.643814,98.315323l-0.0578-5.309387c-12.737488,4.024658-9.024658,15.001526-9.024658,15.001526
			c0.554688,3.171082,1.642029,5.640259,2.897949,7.57312c0.090698,0.139587,0.177002,0.29248,0.269409,0.426331h5.493896
			c-0.022278-0.141541-0.04364-0.283997-0.065125-0.426331c-0.645386-4.277588-0.933411-8.853638-0.933411-8.853638
			l-1.928406,0.77063c-0.430237-1.197205,2.145996-3.031982,2.145996-3.031982l0.46936-3.903259l-3.139221,1.715881
			C192.440079,99.383255,196.643814,98.315323,196.643814,98.315323z"/>
		
			<ellipse transform="matrix(0.840345 -0.542051 0.542051 0.840345 -14.01323 119.727173)" class="st1" cx="196.23912" cy="83.652084" rx="2.334086" ry="2.334035"/>
		
			<ellipse transform="matrix(0.840359 -0.54203 0.54203 0.840359 -14.893966 116.408028)" class="st1" cx="190.173431" cy="83.4888" rx="2.33407" ry="2.334052"/>
		
			<ellipse transform="matrix(0.840335 -0.542067 0.542067 0.840335 -17.153908 119.079781)" class="st1" cx="193.563049" cy="88.658951" rx="2.333813" ry="2.334026"/>
		<path class="st1" d="M214.992447,107.968277c-3.213928-6.989136-7.403076-13.512085-12.461243-19.357605l-0.525696-0.605713
			l-1.396912,1.786621l0.02124,0.022766l-1.343994,1.753235c6.250488,6.784302,11.167419,14.905762,14.260803,24.013
			c0.047852,0.140991,0.090393,0.284851,0.13739,0.426331h4.740845c-0.051331-0.141541-0.097717-0.285156-0.149841-0.426331
			C217.315567,112.982498,216.221146,110.44136,214.992447,107.968277z"/>
		<path class="st1" d="M126.397423,61.84724l-0.049072,0.001343l-0.048401,0.009094
			c-21.619202,3.931889-40.413574,16.047916-52.920471,34.116581c-4.254822,6.147034-7.585266,12.739685-10.003601,19.606323
			c-0.049988,0.141968-0.09967,0.284058-0.148865,0.426331h1.646606c0.050293-0.142151,0.100037-0.284546,0.151123-0.426331
			c4.834595-13.411377,13.550842-25.19989,25.039429-33.737305l1.466614-0.812073
			c2.965454-1.044739,6.971191-0.227966,8.524475,2.951477c2.274231,4.65509-1.982483,8.385132-4.707397,10.188721
			c-9.49469,4.559204-17.698669,11.507996-23.854675,20.402222c-0.230408,0.332886-0.450378,0.670715-0.673645,1.006958
			c-0.094543,0.142395-0.191956,0.283325-0.285217,0.426331h3.553833c0.052979-0.14209,0.104065-0.284546,0.157898-0.426331
			c0.679504-1.789612,1.425842-3.560852,2.244141-5.309204c0.694885-0.808655,1.411072-1.59375,2.144226-2.360596
			c-1.168091,2.49646-2.211487,5.057739-3.130737,7.6698c-0.050232,0.142761-0.105957,0.283264-0.155457,0.426331h9.66449
			c0.047913-0.1427,0.099426-0.283997,0.148254-0.426331c2.539185-7.400208,6.314819-14.298218,11.157532-20.375366
			l0.462158-0.260132c1.026978-0.473145,2.06543-0.924316,3.121582-1.339844
			c-5.276611,6.485962-9.318359,13.943054-11.870117,21.975342c-0.044861,0.141052-0.082092,0.284912-0.125977,0.426331h7.41803
			c0.038452-0.141541,0.07074-0.285156,0.110168-0.426331c2.562744-9.181213,7.178711-17.631531,13.427429-24.710022
			c0.80542-0.180176,1.611938-0.354614,2.428284-0.503052c0.332031-0.060364,0.666931-0.092773,0.99939-0.147583
			c-6.773926,7.282043-11.559326,16.010498-14.133118,25.360657c-0.039062,0.141663-0.074341,0.284363-0.112305,0.426331h9.639343
			c0.026184-0.142151,0.052002-0.284363,0.079285-0.426331c1.800598-9.349182,6.028259-18.155334,12.480103-25.597595
			l0.67334-0.021179c-5.981384,7.527649-9.781921,16.348877-11.187683,25.618774
			c-0.021667,0.142578-0.05127,0.283569-0.071777,0.426331h6.995728c0.020203-0.142029,0.037231-0.284546,0.058716-0.426331
			c1.463196-9.669067,5.76178-18.775024,12.621574-26.255066l0.066589-0.072815
			c2.866699-0.534729,5.484009-1.946533,7.518494-4.110962c2.53302-2.69635,3.864624-6.217041,3.749207-9.91394
			C140.431351,67.613174,134.029984,61.610241,126.397423,61.84724z M109.455833,85.764786
			c-0.620483,1.873108-1.932556,3.47583-3.598083,4.395569l-0.333069,0.184509v0.000488
			c-1.308044,0.362793-2.598328,0.768921-3.871338,1.213684c2.153687-2.52478,2.885437-5.969666,1.681091-9.20874
			c-0.860718-2.315552-2.55188-4.08606-4.762939-4.985962c-0.209167-0.084839-0.423584-0.154297-0.63855-0.222534
			c5.049988-1.989075,8.87915-0.92334,11.11438,3.124939C109.945824,81.892593,110.090782,83.845291,109.455833,85.764786z
			 M110.929344,88.70723c2.237732-2.798828,3.007629-6.66333,1.670593-10.259033
			c-0.981018-2.638245-2.931274-4.737183-5.48999-5.90918c-0.032227-0.014832-0.065979-0.024963-0.098206-0.039429
			c0.245178-0.09491,0.49408-0.184204,0.740784-0.27655c3.287842-0.782532,5.7323-0.035828,7.274109,0.832092
			c2.258789,1.269775,3.927795,3.521851,4.357178,5.877136c0.354065,1.947571-0.283508,4.124634-1.746521,5.973511
			C116.03463,86.93251,113.665367,88.292435,110.929344,88.70723z M122.02755,87.695755l-3.427063,0.319885
			c3.083191-2.116882,5.069763-5.701477,4.944946-9.70929c-0.110046-3.573792-1.873291-6.710815-4.528259-8.711975
			c1.936096-0.199097,3.832703,0.15863,5.527222,1.091492c2.474426,1.362427,4.235283,3.744141,4.713493,6.36969
			C130.153946,81.981766,126.918419,86.713943,122.02755,87.695755z M129.043839,86.989944
			c0.451477-0.368774,0.889709-0.758301,1.295349-1.190125c2.417603-2.57196,3.687195-5.929932,3.577698-9.456604
			c-0.081787-2.665222-0.947205-5.184326-2.473938-7.2995c0.340332,0.180847,0.67157,0.376099,0.979919,0.601746
			c1.87793,1.374084,3.057129,3.549011,3.410034,6.289368C136.491226,81.072525,133.616348,85.642349,129.043839,86.989944z"/>
	</g>
	<path class="st2" d="M146.869827,224.400208c2.700867-0.216553,5.412842-0.568481,8.122498-1.0625
		c12.420654-2.258972,23.900146-7.231934,33.799438-14.470398c12.833679,0.827087,26.108032,1.151306,36.455933,0.321594
		c10.862488-0.871033,18.498962-3.010559,19.009949-7.168945c0.761597-6.209717-14.984741-11.897888-34.035522-16.341614
		c-0.003967-0.001038-0.008606-0.001953-0.012573-0.003052c1.128845-1.839661,2.394958-4.015564,3.342224-5.86145
		c1.036926-1.882202,1.980835-3.802185,2.849609-5.748779h-1.636169c-0.738647,1.730164-1.516479,3.446838-2.380249,5.131104
		c-1.074829,1.94873-2.47467,4.198425-3.759033,6.114197c-0.002625-0.000549-0.005249-0.001038-0.007874-0.001587v-0.000061
		c-0.420166-0.095581-0.841614-0.190674-1.264282-0.285034v-0.000061c2.500732-3.452209,4.685242-7.126343,6.571472-10.958557
		h-11.498596c-2.662842,2.983765-5.610046,5.725037-8.820679,8.165405c-0.833557-0.154602-1.666199-0.305969-2.498047-0.455505
		v-0.000061c3.278076-2.249084,6.3302-4.831787,9.127258-7.709839h-11.578735
		c-4.042358,2.252258-8.379944,4.004211-12.94397,5.188782c-3.215454-0.476685-6.292358-0.901855-9.161133-1.271912
		c0.400269-0.023254,0.798889-0.035645,1.199768-0.06781c1.798828-0.144226,3.611023-0.380066,5.422119-0.710205
		c3.767029-0.68512,7.371277-1.747803,10.78363-3.138855h-23.36261l1.179504,3.328064l0.235657,0.665344l1.056274,2.980286
		l0.078552,0.221497l2.702454,7.625122c0.070251,0.19873,0.174316,0.384338,0.307617,0.546936l1.601562,1.967346l0.729431,0.896301
		l-3.72113-0.420715l-2.662842-0.301086l-4.690063-10.689636l-0.133728-0.304993l-1.326843-3.024902l-0.371887-0.848022v-0.000061
		l-1.158936-2.641479h-37.248291l0.006958,0.181152l0.14093,3.661011v0.000244l0.000916,0.011047
		c0,0,0.013916,0.020264,0.021301,0.031799c0,0-0.005188-0.000061-0.007751-0.000122l0.126587,3.288879
		c0.010864,0.264465,0.077576,0.523254,0.197388,0.759766l0.017639,0.034912
		c-0.002014-0.001404-0.004089-0.002808-0.006165-0.004272l1.257996,2.472534l-5.286377-0.386902l-0.488281-5.895874v-0.000244
		l-0.026733-0.325073l-0.304749-3.680115l-0.012268-0.148743h-3.688538l0.004333,0.052612
		c-0.01532-0.017029-0.029053-0.035522-0.044312-0.052612H97.121414c0.178467,0.254211,0.351196,0.513123,0.533875,0.763916
		c-1.615906,0.151794-3.153748,0.333618-4.595764,0.549316c-0.290283-0.430725-0.565002-0.873413-0.843384-1.313232H78.763016
		c0.876831,1.79248,1.812744,3.546509,2.823486,5.246643v0.000183c-0.784363,0.716858-1.271912,1.522339-1.41687,2.424622
		c-1.480957-2.471802-2.811646-5.034912-4.001709-7.671448H64.341751
		C78.049026,207.024414,111.720108,227.219971,146.869827,224.400208z M159.196304,217.515076
		c-20.030029,3.640198-40.280884-0.731079-57.022888-12.32019c-7.046265-4.877075-13.100891-10.796753-18.039551-17.499207
		c1.566711,1.065247,3.543213,2.104919,5.854248,3.114685v0.000183l0.000671,0.000244
		c16.892944,19.011475,43.005676,29.011658,69.857605,24.12738c7.191711-1.308167,13.950928-3.607971,20.177917-6.714722
		c1.237976,0.10199,2.486023,0.20105,3.744751,0.295349C176.261795,212.859131,167.981216,215.916809,159.196304,217.515076z
		 M123.62648,200.263489l29.231934,4.969299C142.624039,205.77655,132.684036,203.984436,123.62648,200.263489z
		 M95.505203,178.769043c1.457764-0.172485,3.080505-0.327576,4.892212-0.45697
		c1.867554-0.133545,3.931274-0.240173,6.211182-0.312256c0.926086-0.029663,1.87085-0.052551,2.831543-0.07019l0.666748,8.056824
		c0.07489,0.901794,0.79541,1.614746,1.698181,1.680725l10.10437,0.737671c0.09375,0.007996,0.188049,0.006958,0.280579-0.000488
		c0.556335-0.044617,1.069153-0.341797,1.384277-0.814453c0.279236-0.420837,0.367676-0.930176,0.262573-1.410522
		c-0.004761-0.002991-0.009521-0.006287-0.014282-0.009338c-0.033752-0.146729-0.080933-0.291443-0.150818-0.429016
		l-2.367981-4.65564l-0.197876-0.411255l-0.103455-2.685059c8.947998,0.225586,18.842529,0.854065,29.224976,1.858276
		l0.00061,0.000122c0.978333,0.210449,1.964355,0.387085,2.953186,0.543213l5.265381,12.002441l0.713684,1.626892
		c0.144775,0.330017,0.385254,0.595459,0.676086,0.787354c0.237549,0.15686,0.507019,0.267273,0.799988,0.300781l11.911865,1.34668
		c0.118713,0.012451,0.237854,0.014526,0.353455,0.005249c0.610352-0.048889,1.165344-0.401184,1.466431-0.95166
		c0.357483-0.654541,0.283691-1.462036-0.188232-2.041016l-0.844116-1.03656l-1.566345-1.923767l-2.564087-3.149231
		l-1.97876-5.583618c6.618774,0.860107,13.074097,1.826843,19.255066,2.879333
		c0.977417,0.166382,1.94281,0.336426,2.906311,0.507019c1.861389,0.329712,3.694336,0.666931,5.498108,1.011353
		c0.466248,0.089111,0.92926,0.178772,1.391663,0.26886c2.962952,0.577026,5.842041,1.17218,8.618408,1.784485
		c0.473938,0.104614,0.941467,0.210327,1.409668,0.315857v0.000061c0.599854,0.135193,1.199097,0.270386,1.789368,0.407043
		c4.062317,0.941284,7.890625,1.916077,11.419678,2.91687c17.579285,4.985046,21.209106,8.773926,21.093872,9.707764
		c-0.115295,0.932556-4.552429,3.734985-22.815796,4.313599c-7.272156,0.232788-15.643372,0.08728-24.699341-0.404236
		c-1.37738-0.074707-2.768921-0.156799-4.177307-0.24762c-1.028259-0.066406-2.064636-0.137817-3.108398-0.212708
		c-6.313293-0.453308-12.889893-1.061523-19.616211-1.818787c-1.757751-0.198059-3.522461-0.402283-5.298645-0.620422
		c-1.405273-0.172607-2.803894-0.350708-4.195679-0.532898c-11.069824-1.448792-21.665833-3.196777-31.281189-5.142029
		c-4.927368-0.996826-9.594299-2.044983-13.930847-3.132751c-2.292297-0.574829-4.501953-1.159302-6.598633-1.753784
		c-17.579285-4.985107-21.209106-8.773926-21.093872-9.707764C83.878555,181.609375,86.428665,179.842957,95.505203,178.769043z"/>
	<g>
		<path class="st0" d="M90.283226,170.847916c-3.633118-6.424744-6.29364-13.539734-7.688782-21.211304
			c-2.119751-11.65448-1.10199-23.142883,2.418274-33.6297h-9.66449c-4.127197,11.939148-5.532471,24.979065-3.111511,38.287903
			c1.05835,5.818787,2.76825,11.352722,5.026367,16.553101c0.062317,0.143494,0.130615,0.283325,0.193787,0.426331
			c0.416199,0.942383,0.855774,1.870117,1.306152,2.790833h13.453125c-0.580627-0.917358-1.146851-1.845703-1.690369-2.790833
			C90.444298,171.132584,90.363731,170.99025,90.283226,170.847916z"/>
		<path class="st0" d="M74.798302,170.847916c-1.873474-4.692871-3.309692-9.59845-4.235107-14.684204
			c-2.474976-13.607605-1.246094-27.362427,3.524963-40.156799h-3.553833c-5.482361,8.404297-8.756409,17.835205-9.694092,27.59668
			c-0.483154-9.579102,0.967102-18.921082,4.033386-27.59668h-1.646606c-4.565308,13.195801-5.708069,27.406799-3.137878,41.533264
			c0.054016,0.246277,0.617371,2.788818,1.598267,6.280701c0.504211,3.040283,1.096375,5.445251,1.538147,7.027039
			c0.041992,0.150269,0.08197,0.291199,0.121033,0.426331c0.302734,1.048279,0.512451,1.643738,0.529419,1.689697
			c0.148193,0.371582,0.312561,0.732727,0.465759,1.101135h11.826172c-0.416077-0.921753-0.816406-1.851624-1.197937-2.790833
			C74.912315,171.132339,74.855125,170.99025,74.798302,170.847916z"/>
		<path class="st0" d="M106.385643,170.847916c-6.041626-7.728577-10.354248-16.990784-12.231445-27.312134
			c-1.722778-9.470886-1.194397-18.82135,1.169983-27.52887h-7.41803c-3.071655,9.897644-3.887207,20.653198-1.904297,31.557068
			c1.549927,8.52179,4.675781,16.354187,8.994324,23.283936c0.087891,0.141052,0.170593,0.286011,0.259521,0.426331
			c0.600342,0.947388,1.223938,1.876526,1.865723,2.790833h11.959045c-0.810425-0.905029-1.592896-1.837341-2.351807-2.790833
			C106.615013,171.131485,106.498131,170.991776,106.385643,170.847916z"/>
		<path class="st0" d="M167.544449,131.693985c0.172058-0.06427,0.367249-0.048889,0.535583,0.034607l0.585388-1.182312
			c-0.483643-0.241821-1.033752-0.280457-1.544495-0.102478c-0.511169,0.172913-0.925598,0.535889-1.163574,1.019226
			c-0.240417,0.484802-0.276611,1.033447-0.102356,1.545776c0.172913,0.511169,0.534485,0.924438,1.019226,1.163574
			l0.585388-1.182312c-0.168335-0.083496-0.294983-0.227234-0.354553-0.406067
			c-0.060791-0.17749-0.047546-0.367371,0.035828-0.536987C167.223099,131.878799,167.366898,131.753494,167.544449,131.693985z"/>
		<path class="st1" d="M197.63942,121.73848c-0.585571-1.257446-1.054077-3.426819-1.416809-5.731567h-5.493896
			C193.764969,120.406204,197.63942,121.73848,197.63942,121.73848z"/>
		<path class="st0" d="M153.118607,171.274246l-0.112549-0.228394l-0.00061,0.000122l-0.115723-0.198059l-0.812073-1.389893
			c-0.444702,0.259888-0.910461,0.482605-1.37323,0.71106c-0.233887,0.115234-0.477234,0.209167-0.715027,0.315613
			c-0.273621,0.122437-0.545959,0.247314-0.822876,0.36322c-0.048401,0.020264-0.094971,0.044128-0.143799,0.063477
			c-0.326111,0.129089-0.656616,0.248352-0.989014,0.362854c-2.632812,0.906738-5.451904,1.356384-8.300964,1.322815
			c-1.796631-0.021118-3.604858-0.227783-5.384644-0.644043c-0.796753-0.186768-1.566406-0.421692-2.322449-0.678772
			c-0.395081-0.134277-0.78656-0.273743-1.169922-0.426331c-0.901794-0.359009-1.775818-0.759949-2.609131-1.214355
			c-3.290154-1.794434-6.015495-4.318787-7.940239-7.430054c-0.006653-0.018799-0.023315-0.032898-0.03064-0.051392
			c-0.078674-0.19873-0.183716-0.388672-0.328003-0.550903l-0.122131-0.136353
			c-0.100098-0.110962-0.22467-0.181213-0.343079-0.26239c-0.628784-0.431885-1.464905-0.464722-2.108826,0.003784
			c-0.696411,0.507141-0.93866,1.421448-0.61261,2.197083l0.286621,7.44458l0.016418,0.426331l0.107483,2.790833h37.248283
			l-0.602234-1.37262L153.118607,171.274246z"/>
		<path class="st0" d="M221.845108,128.646011c-0.787292-4.330994-1.938599-8.554016-3.420227-12.639099h-4.740845
			c0.655396,1.971985,1.230591,3.986938,1.710449,6.046692c0.280457,1.715271,0.488464,3.430969,0.620056,5.144836
			c-0.690063,8.682373-3.64624,17.068237-8.734924,24.420654c-6.404724,9.25177-15.52771,15.922607-26.099182,19.228821
			c-0.464478,0.145264-0.927368,0.294128-1.3974,0.426331c-1.530457,0.430298-3.088013,0.794556-4.672058,1.082764
			c-3.656799,0.663879-7.323486,0.90625-10.950256,0.767944l-0.656067-1.850708l-0.151123-0.426331l-0.960083-2.708435
			c9.452209-5.170349,11.560242-15.924316,9.395935-25.15979l1.721313-0.789124
			c2.176208-0.840454,5.264282,0.949951,6.265076,1.70636l2.877808,2.200378l0.246216-11.557312l-4.020386-1.241028
			l5.081726-3.262756l-1.942627-2.455139l0.541321-0.521851l-3.4505-4.359314l-18.794189,3.78833
			c-4.747986-6.969177-14.273071-8.811768-21.274353-4.09668c-3.404785,2.291626-5.713318,5.771667-6.499878,9.799561
			s0.042175,8.121521,2.287659,11.451111l0.266785,0.472595c0.045227,0.080383,0.090454,0.160828,0.137146,0.242432
			l1.943787-1.110229l-0.079712-0.139709c-3.085815-5.503235-1.176025-12.504944,4.301331-15.671387
			c5.085449-2.941956,11.501709-1.551697,14.974731,3.007263l-4.083191,7.434509l0.864075,0.970459
			c0.15979,0.178711,1.362671,1.447693,3.21637,1.970886c-7.917175,9.340271-21.607727,12.332642-31.994743,6.295532
			c-0.074585-0.043152-0.152649-0.080872-0.232849-0.11322c-0.624207-0.253784-1.556091-0.683044-2.604736-1.237793
			c-2.147522-4.253174-3.699036-8.837708-4.575562-13.656494c-0.985474-5.417542-1.059143-10.838257-0.309631-16.100159h-6.995728
			c-0.820679,5.720947-0.729187,11.607605,0.33606,17.4646c0.306335,1.683411,0.690125,3.333313,1.142395,4.949524
			l-2.939697,0.003723c-0.194519-0.845581-0.373413-1.697205-0.529602-2.556641
			c-1.218567-6.698792-1.172424-13.404846,0.017578-19.861206h-9.639343c-2.281921,8.530945-2.733643,17.565247-1.107849,26.501953
			c1.777527,9.773499,5.828491,18.758667,11.755981,26.383118l0.000061,0.000305l0.161865,1.955627l0.035339,0.426331
			l0.231018,2.790833h3.688538l-0.03656-0.443726v-0.000305l-0.194275-2.346802l-0.035278-0.426331l-2.067566-24.979187
			l-0.000061-0.000977l-0.31189-3.769043l1.192139-0.001221c0.499512,0.794617,1.127014,1.539856,1.820496,2.238403
			l0.000061,0.000488c3.349487,3.372925,8.377014,5.571533,9.463867,6.022217c0.76593,0.440491,1.547729,0.83667,2.341858,1.193115
			c11.722099,5.261475,26.190422,1.453796,34.571953-8.836121c0.787598-0.967224,1.519409-1.992554,2.198242-3.066101
			c0.417175-0.328613,0.822937-0.710999,1.214294-1.152405l0.263916-0.385803
			c0.192017-0.378784,1.820801-3.773315-0.116394-6.563782l-3.020813,2.096619
			c0.523376,0.753296,0.182434,2.016907-0.055969,2.607605c-0.708862,0.739624-1.42627,1.113953-2.073181,1.125732
			c-0.387573,0.005188-0.752258-0.107788-1.063049-0.258728l3.824097-6.963806l16.072021-3.243835l1.76416,2.223572
			l-8.321045,5.343262l8.92395,2.756592l-0.044434,2.090698c-1.91748-0.83551-4.531372-1.48584-7.033997-0.522217
			l-3.223267,1.473999l-0.053223,0.030273c-0.039795,0.019775-0.076721,0.042664-0.11438,0.06488l-1.797668,1.021973
			l1.259949,2.198669c0.02887,0.118286,0.063843,0.231873,0.091553,0.351135c1.7677,7.684265,0.447083,17.421631-8.881287,21.595825
			c-0.875183,0.39093-1.302063,1.38855-0.982666,2.291443l1.069397,3.016724l0.151123,0.426331l0.547546,1.544617v0.000061
			l0.44165,1.246155h23.36261c2.010254-0.819458,3.954407-1.752075,5.824585-2.790833
			c0.243347-0.135193,0.474243-0.287659,0.715088-0.426331c10.678772-6.149841,18.901367-15.741089,23.410767-27.015076
			c-1.627869,4.736145-3.917908,9.277344-6.846497,13.507935c-3.683655,5.321777-8.189331,9.860352-13.307556,13.507141
			c-0.199463,0.142151-0.397034,0.286987-0.598328,0.426331c-1.451477,1.004883-2.955322,1.931091-4.498474,2.790833h11.578735
			c0.877136-0.902527,1.732483-1.830383,2.557617-2.790833c0.123291-0.143494,0.251587-0.281494,0.373657-0.426331
			c1.244141-1.47583,2.428284-3.015503,3.541138-4.623291c5.904785-8.528381,9.428711-18.203613,10.469116-28.242126
			c-0.021179,3.460999-0.305176,6.878296-0.841431,10.230103c-2.175598,8.273926-6.027771,15.968018-11.225159,22.635315
			c-0.109863,0.14093-0.213745,0.286316-0.324768,0.426331c-0.756775,0.953918-1.54718,1.88147-2.358704,2.790833h11.498596
			c0.45459-0.923584,0.906677-1.848633,1.324585-2.790833c0.062622-0.141174,0.120239-0.284729,0.182007-0.426331
			c1.838684-4.215088,3.317749-8.603516,4.362854-13.133972c-0.859253,4.46875-2.105591,8.858765-3.717285,13.133972
			c-0.053345,0.141602-0.101196,0.284973-0.155396,0.426331c-0.359985,0.938782-0.761047,1.863892-1.156799,2.790833h1.636169
			c0.41272-0.924744,0.813782-1.853577,1.190002-2.790833c0.057373-0.142822,0.122253-0.283203,0.178711-0.426331
			C223.010757,157.561905,224.465286,143.048721,221.845108,128.646011z"/>
	</g>
</g>
</svg>
