<?xml version="1.0" encoding="utf-8"?>
<!-- Generator: Adobe Illustrator 21.0.1, SVG Export Plug-In . SVG Version: 6.00 Build 0)  -->
<svg version="1.1" id="Layer_1" xmlns="http://www.w3.org/2000/svg" xmlns:xlink="http://www.w3.org/1999/xlink" x="0px" y="0px"
	 viewBox="0 0 283.459991 283.459991" style="enable-background:new 0 0 283.459991 283.459991;" xml:space="preserve">
<style type="text/css">
	.st0{fill:#FFFFFF;}
	.st1{fill:#FFFFFF;}
	.st2{fill:#FFFFFF;}
</style>
<g>
	<g>
		<path class="st2" d="M160.524277,134.112473l0.585388-1.182327c-0.168335-0.083481-0.294952-0.227219-0.354553-0.406067
			c-0.060776-0.17746-0.047562-0.367325,0.035828-0.536942c0.082199-0.168243,0.226044-0.293579,0.40361-0.353073
			c0.172012-0.064224,0.367218-0.048843,0.535553,0.034653l0.585388-1.182343
			c-0.483627-0.241821-1.033737-0.280487-1.544479-0.102448c-0.511154,0.172882-0.925598,0.535873-1.163589,1.019196
			c-0.240433,0.484818-0.276627,1.033432-0.102341,1.545776C159.677963,133.460052,160.039566,133.873322,160.524277,134.112473z"/>
		<path class="st2" d="M106.776306,177.834061c-0.102791,0.000229-0.209557-0.000824-0.312332-0.000427
			c0.114647,0.107361,0.22448,0.219131,0.339058,0.325684L106.776306,177.834061z"/>
		<path class="st2" d="M102.775085,174.05777l0.010216,0.127441c0.035515-0.00058,0.071045-0.001007,0.10656-0.001587
			C102.853539,174.141113,102.813423,174.100433,102.775085,174.05777z"/>
		<g>
			<path class="st2" d="M185.115723,78.010666l1.077164-6.023819c0,0-4.575073-2.014572-3.646744-5.242126l3.241959,2.548531
				l0.209305-4.526093c0,0-2.578873-2.576248-1.861542-3.855072l2.045242,1.243282c0,0,2.974243-12.772884,5.604538-16.602852
				c0,0-9.816727,1.632065-14.070511,13.687687C177.715134,59.240204,171.403625,71.009758,185.115723,78.010666z"/>
			<path class="st2" d="M177.803955,97.384087l4.622864-4.009544c-13.034409-8.19339-19.912277,3.254074-19.912277,3.254074
				c-8.178192,9.826096-4.553864,19.094406-4.553864,19.094406c1.943359-4.220375,11.391861-13.315216,11.391861-13.315216
				l-2.114868-1.119934c0.731522-1.270912,4.264511-0.374763,4.264511-0.374763l3.780701-2.497559l-3.848755-1.479904
				C173.730881,94.48587,177.803955,97.384087,177.803955,97.384087z"/>
			<path class="st2" d="M157.269791,85.375443c1.355164-1.226433,5.201019,1.19278,5.201019,1.19278l5.442688-1.510468
				l-3.997086-3.232681c3.664856-2.023384,7.382126,2.977341,7.382126,2.977341l7.021454-2.980164
				c-12.311188-14.720634-24.863144-3.785721-24.863144-3.785721c-13.470291,8.513252-12.730209,20.896004-12.730209,20.896004
				c3.924622-4.258904,18.621506-11.417076,18.621506-11.417076L157.269791,85.375443z"/>
			<path class="st2" d="M193.564102,81.770943l4.350464-3.044502c0,0-1.579559-4.039566,0.966888-5.455765l0.432877,3.551781
				l2.900406-2.654648c0,0-0.00856-3.162857,1.215363-3.510094l0.495972,2.01635c0,0,9.648773-6.032784,13.610764-6.777458
				c0,0-7.035324-5.00647-17.031174-0.197632C200.505661,65.698975,189.419647,69.071892,193.564102,81.770943z"/>
			<path class="st2" d="M190.293915,98.255394l-0.057831-5.309341c-12.737488,4.02462-9.024658,15.001534-9.024658,15.001534
				c1.911301,10.926498,10.078094,13.731003,10.078094,13.731003c-1.70195-3.654663-2.41539-15.011574-2.41539-15.011574
				l-1.92836,0.770653c-0.430283-1.197227,2.145981-3.031967,2.145981-3.031967l0.469376-3.903282l-3.139267,1.715897
				C186.090149,99.323349,190.293915,98.255394,190.293915,98.255394z"/>

				<ellipse transform="matrix(0.84034 -0.542059 0.542059 0.84034 -14.994251 116.27755)" class="st2" cx="189.889191" cy="83.592186" rx="2.334098" ry="2.334028"/>

				<ellipse transform="matrix(0.84034 -0.542059 0.542059 0.84034 -15.874186 112.963501)" class="st2" cx="183.823486" cy="83.428886" rx="2.334079" ry="2.334028"/>

				<ellipse transform="matrix(0.840321 -0.542088 0.542088 0.840321 -18.134602 115.633446)" class="st2" cx="187.21312" cy="88.59906" rx="2.333795" ry="2.334028"/>
			<path class="st2" d="M203.872162,185.618469c-0.003952-0.001053-0.00856-0.001984-0.012527-0.003036
				c1.12883-1.839676,2.394943-4.015579,3.342224-5.861465c8.573624-15.562637,11.516754-33.448914,8.293304-51.167892
				c-1.316513-7.242142-3.629807-14.190994-6.852631-20.677673c-3.213974-6.989136-7.403107-13.512131-12.461227-19.357658
				l-0.525757-0.605713l-1.396881,1.786644l0.021225,0.022781l-1.343964,1.753227
				c7.696182,8.353432,13.370758,18.734009,16.108627,30.486023c0.280441,1.715271,0.48848,3.430939,0.620087,5.144806
				c-0.690063,8.682381-3.64624,17.068245-8.73494,24.420677c-7.602493,10.98201-19.026642,18.347015-32.16864,20.737915
				c-3.65683,0.663879-7.323532,0.906235-10.950272,0.76796l-1.767273-4.985489
				c9.452194-5.170334,11.560257-15.924332,9.39595-25.15979l1.721283-0.789124
				c2.176224-0.840469,5.264297,0.949936,6.265076,1.70636l2.877838,2.200378l0.246185-11.557281l-4.02037-1.241058
				l5.081696-3.262756l-1.942612-2.455116l0.541351-0.521873l-3.450531-4.359283l-18.794174,3.788284
				c-4.748001-6.969177-14.273056-8.811768-21.274368-4.09668c-3.404755,2.291626-5.713303,5.771698-6.499855,9.799576
				c-0.786552,4.027893,0.042145,8.121521,2.287651,11.451096l0.266785,0.472595
				c0.045242,0.080429,0.090485,0.160858,0.137115,0.242462l1.943817-1.110214l-0.079742-0.13974
				c-3.08577-5.50322-1.17598-12.504913,4.301376-15.671379c5.085434-2.941948,11.501678-1.551697,14.974686,3.007271
				l-4.083145,7.434509l0.864059,0.970413c0.159805,0.178741,1.362686,1.447693,3.216339,1.970932
				c-7.91713,9.340271-21.607697,12.332596-31.994751,6.295517c-0.074585-0.043167-0.152611-0.080872-0.232796-0.113235
				c-0.624245-0.253769-1.556122-0.683044-2.604736-1.237778c-2.147568-4.253143-3.699066-8.837692-4.575562-13.656494
				c-2.825958-15.535683,1.683487-31.128059,12.370636-42.781555l0.066574-0.07283
				c2.866722-0.534729,5.484016-1.946495,7.518517-4.110954c2.533051-2.696312,3.864594-6.217018,3.749207-9.913948
				c-0.235565-7.614609-6.636963-13.617527-14.269554-13.380527l-0.049034,0.001347l-0.048416,0.009052
				C98.330803,65.729637,79.536461,77.845703,67.029564,95.91433c-12.505714,18.067245-17.22797,39.923927-13.290371,61.565971
				c0.054012,0.246216,0.617386,2.788818,1.598267,6.28064c0.923786,5.569824,2.146442,9.028854,2.188576,9.143082
				c13.40662,33.615189,47.451275,54.287567,82.993896,51.436325c2.700836-0.216568,5.412811-0.568512,8.122452-1.062531
				c12.420654-2.258942,23.900162-7.231934,33.799469-14.470383c12.833633,0.827103,26.108002,1.151306,36.455887,0.321579
				c10.862488-0.871002,18.498993-3.010559,19.009995-7.16893C238.669342,195.750381,222.922974,190.062195,203.872162,185.618469z
				 M213.444763,157.654053c-1.429565,7.43486-3.909973,14.658173-7.409714,21.482239
				c-1.074829,1.948746-2.47467,4.19841-3.759048,6.114151c-0.002625-0.000504-0.005249-0.001022-0.007889-0.001541v-0.000076
				c-0.420181-0.095551-0.841614-0.190674-1.264282-0.285034v-0.000092
				C206.885742,176.843781,211.15802,167.566788,213.444763,157.654053z M210.826782,137.922623
				c-0.021194,3.460968-0.305176,6.878281-0.8414,10.230057c-3.563034,13.550156-11.60228,25.560486-22.72934,34.017914
				c-0.833542-0.154617-1.666183-0.306-2.498032-0.45549l-0.000015-0.000076
				c6.02504-4.133865,11.316376-9.362137,15.599686-15.550323C206.262451,157.636322,209.786392,147.96109,210.826782,137.922623z
				 M161.401184,177.854263c1.798843-0.144241,3.611053-0.380066,5.42215-0.710205
				c19.077713-3.469803,34.01442-16.571472,40.734055-33.371155c-1.627869,4.736191-3.917923,9.277344-6.846497,13.50795
				c-7.573441,10.941284-18.599335,18.604095-31.348312,21.913071c-3.2155-0.476669-6.292389-0.901825-9.161179-1.271912
				C160.6017,177.898819,161.00029,177.886414,161.401184,177.854263z M116.289963,150.298676
				c0.765953,0.440491,1.547752,0.8367,2.341881,1.193146c11.722115,5.261475,26.190437,1.453766,34.571968-8.836151
				c0.787552-0.967224,1.519379-1.992538,2.198212-3.066055c0.417191-0.328613,0.822968-0.711029,1.214325-1.15242
				l0.263901-0.385834c0.192047-0.378784,1.820801-3.7733-0.116394-6.563782l-3.020798,2.096603
				c0.523346,0.753326,0.182419,2.016922-0.056,2.60762c-0.708832,0.739624-1.426254,1.113968-2.073181,1.125748
				c-0.387527,0.005219-0.752213-0.107788-1.063034-0.258728l3.824112-6.963806l16.072037-3.243813l1.764099,2.223564
				l-8.32103,5.343262l8.923965,2.756561l-0.044434,2.090729c-1.917511-0.83551-4.531387-1.48587-7.033966-0.522247
				l-3.223312,1.47403l-0.053177,0.030289c-0.03981,0.01976-0.076767,0.042603-0.114426,0.064865l-1.797653,1.021957
				l1.259964,2.198685c0.028885,0.118271,0.063858,0.231842,0.091522,0.351105
				c1.767715,7.684265,0.447128,17.421661-8.881271,21.595871c-0.875153,0.390884-1.302078,1.388519-0.982681,2.291382
				l1.768082,4.987701l0.000015,0.000076l1.62114,4.574188l0.235687,0.665344l1.056244,2.980316l0.078537,0.221466
				l2.702454,7.625168c0.070236,0.198685,0.174347,0.384308,0.307648,0.546906l1.601562,1.967377l0.729446,0.896271
				l-3.721176-0.4207l-2.662811-0.301086l-4.690063-10.689621l-0.133728-0.305054l-1.326859-3.024902l-0.371887-0.847992v-0.000076
				l-1.761154-4.014099l-0.811584-1.646576l-0.000641,0.000137l-0.92778-1.587952
				c-0.444702,0.259857-0.910477,0.482605-1.37323,0.711014c-0.233871,0.11525-0.477203,0.209213-0.715012,0.315643
				c-0.321457,0.143784-0.638306,0.296646-0.96669,0.426666c-2.909073,1.151642-6.081238,1.723465-9.289993,1.685684
				c-1.796585-0.021149-3.604828-0.227814-5.384613-0.644058c-2.192368-0.51387-4.236031-1.302078-6.101517-2.319412
				c-3.290131-1.794479-6.015488-4.318817-7.940247-7.430099c-0.006676-0.018784-0.023331-0.032883-0.030632-0.051376
				c-0.078651-0.19873-0.183754-0.388641-0.328018-0.550934l-0.122147-0.136322
				c-0.10006-0.110947-0.224663-0.181213-0.343033-0.262405c-0.62883-0.431854-1.464905-0.464706-2.108833,0.003815
				c-0.696426,0.507156-0.938644,1.421432-0.612648,2.197052l0.417473,10.842941l0.140968,3.661011l0.000015,0.000244
				l0.000885,0.011002c0,0,0.013916,0.020294,0.021301,0.03183c0,0-0.00518-0.000076-0.007767-0.000107l0.12664,3.288849
				c0.010864,0.264465,0.077522,0.523254,0.19735,0.75975l0.01767,0.034943c-0.002052-0.00145-0.004105-0.002823-0.006157-0.004272
				l1.257996,2.472519l-5.286407-0.386932l-0.488274-5.895859l-0.026726-0.325272l-0.304787-3.68013l-0.048805-0.592468
				l-0.000023-0.00032l-2.297081-27.75235l-0.000076-0.000961l-0.311913-3.769028l1.192192-0.00119
				c0.499504,0.794601,1.126953,1.539825,1.820496,2.238358l0.000038,0.000488
				C110.175575,147.649414,115.20314,149.848022,116.289963,150.298676z M103.642761,133.411621
				c0.306328,1.68338,0.69014,3.333298,1.14238,4.949524l-2.93969,0.003677c-0.194534-0.845566-0.373383-1.697144-0.529587-2.55661
				c-3.01313-16.563683,1.579468-33.199432,12.576973-45.885101l0.673325-0.021179
				C104.806831,102.184105,100.822296,117.904121,103.642761,133.411621z M90.586273,142.448959
				c1.777473,9.773468,5.828461,18.758636,11.755981,26.383102l0.000023,0.00032l0.432579,5.225388
				c-7.477631-8.329239-12.82077-18.761368-14.970581-30.581879c-3.571732-19.635475,2.450935-38.780975,14.70755-52.66526
				c0.805412-0.180153,1.611938-0.354584,2.428299-0.503044c0.332024-0.060326,0.666939-0.092758,0.999413-0.147545
				C92.894875,104.183075,87.147858,123.548866,90.586273,142.448959z M79.651939,147.504074
				c1.853737,10.192322,5.936882,19.417206,11.653419,27.265015c-1.615906,0.151794-3.153763,0.333618-4.595795,0.549316
				c-5.081558-7.540848-8.733826-16.222321-10.465057-25.741684c-3.648376-20.058975,1.943665-39.648102,13.724083-54.431412
				l0.462135-0.260124c1.026978-0.473122,2.065414-0.924294,3.121574-1.339867
				C81.69738,108.117271,76.027428,127.573219,79.651939,147.504074z M127.566956,76.283287
				c-0.081802-2.665176-0.947182-5.18428-2.473961-7.299507c0.340385,0.180908,0.67157,0.376129,0.979973,0.601784
				c1.877922,1.374054,3.057098,3.548988,3.410019,6.289337c0.65831,5.137695-2.216545,9.707565-6.789062,11.055145
				c0.451485-0.368782,0.889664-0.758324,1.295364-1.190117C126.406868,83.167961,127.67646,79.809998,127.566956,76.283287z
				 M118.194435,70.625938c2.474426,1.362427,4.235298,3.744179,4.713509,6.369736
				c0.896103,4.926193-2.339462,9.65834-7.230331,10.64019l-3.427071,0.319893c3.083191-2.116882,5.069771-5.7015,4.944962-9.709328
				c-0.110046-3.573784-1.873283-6.710793-4.528236-8.711952C114.603317,69.33535,116.499962,69.6931,118.194435,70.625938z
				 M101.402588,72.163124c3.287819-0.782509,5.732269-0.035805,7.274117,0.832085
				c2.258804,1.269806,3.927803,3.521851,4.357193,5.877167c0.354012,1.947556-0.283524,4.124626-1.746544,5.973473
				c-1.602638,2.026779-3.971924,3.386658-6.707954,3.801476c2.237747-2.798798,3.007652-6.6633,1.670586-10.259041
				c-0.980972-2.63826-2.931236-4.737144-5.489975-5.909187c-0.032219-0.014793-0.06601-0.024933-0.098206-0.039406
				C100.907005,72.344788,101.155891,72.255486,101.402588,72.163124z M102.69738,80.206825
				c0.898506,1.62587,1.043442,3.578552,0.408531,5.49807c-0.620522,1.873108-1.932587,3.475792-3.598129,4.395576
				l-0.333061,0.184471l0.000038,0.000488c-1.308037,0.362785-2.598366,0.768929-3.871376,1.213692
				c2.153679-2.52478,2.885468-5.969666,1.681099-9.20871c-0.860703-2.315567-2.551865-4.086075-4.762901-4.985977
				c-0.209183-0.084824-0.423592-0.154274-0.638557-0.222549C96.633003,75.092842,100.462135,76.158569,102.69738,80.206825z
				 M54.490299,143.543701c-1.239811-24.581909,10.201031-47.62397,29.223911-61.760323l1.466621-0.812111
				c2.965485-1.044708,6.971222-0.227936,8.52449,2.95153c2.274208,4.655098-1.982483,8.385132-4.707375,10.188713
				c-9.494728,4.559166-17.698662,11.50795-23.854713,20.402237C59.080368,123.271965,55.48164,133.223953,54.490299,143.543701z
				 M75.236588,179.251968c-0.784363,0.716904-1.271957,1.522369-1.416855,2.424637
				c-4.65654-7.771957-7.935997-16.392166-9.606445-25.572815c-2.849277-15.665237-0.796471-31.52729,5.926987-45.892342
				c0.694885-0.808655,1.411064-1.593727,2.144211-2.360596c-6.559212,14.01841-9.378529,29.997536-6.397705,46.384056
				c1.654755,9.097855,4.886436,17.509262,9.349792,25.016907L75.236588,179.251968z M152.846359,217.455154
				c-20.030029,3.640244-40.280891-0.731033-57.02285-12.320145c-7.046288-4.877075-13.100914-10.796753-18.039597-17.499207
				c1.566719,1.065216,3.543266,2.104919,5.854279,3.114639l0.000015,0.000244l0.000664,0.000183
				c16.892921,19.011536,43.005692,29.011688,69.857574,24.127441c7.191727-1.308182,13.950912-3.607971,20.177917-6.714767
				c1.237976,0.10199,2.486053,0.20105,3.744736,0.295395C169.911865,212.799255,161.631271,215.856934,152.846359,217.455154z
				 M117.276573,200.203583l29.231926,4.96933C136.274109,205.71666,126.334122,203.924545,117.276573,200.203583z
				 M234.258804,201.512985c-0.115326,0.932556-4.552429,3.735001-22.815811,4.313614
				c-7.272141,0.232758-15.643402,0.087296-24.699326-0.404236c-1.37738-0.074722-2.768936-0.156784-4.177353-0.247604
				c-1.028214-0.066437-2.064575-0.137863-3.108337-0.212738c-6.313324-0.453293-12.889938-1.061508-19.616226-1.818787
				c-1.757751-0.198029-3.522476-0.402283-5.29866-0.620407c-1.405273-0.172623-2.803864-0.350708-4.195694-0.532898
				c-11.069824-1.448776-21.665787-3.196777-31.281197-5.142044c-4.927315-0.996826-9.594307-2.044998-13.930832-3.132767
				c-2.292297-0.574783-4.501968-1.159271-6.59864-1.753784c-17.579285-4.985077-21.209084-8.773926-21.093864-9.707779
				c0.085793-0.704041,2.635849-2.47049,11.712387-3.544373c1.457779-0.172501,3.080536-0.327591,4.892212-0.457016
				c1.867599-0.133499,3.931328-0.240143,6.211197-0.312225c0.926109-0.029648,1.870865-0.052551,2.831558-0.070175
				l0.666718,8.056808c0.074898,0.901794,0.795456,1.614731,1.698196,1.68071l10.10437,0.737701
				c0.09375,0.007996,0.188065,0.006897,0.280579-0.000519c0.556358-0.044617,1.069183-0.341782,1.384315-0.814468
				c0.279198-0.420853,0.367676-0.930176,0.262566-1.410477c-0.004768-0.003006-0.009567-0.006348-0.014328-0.009354
				c-0.033752-0.146744-0.080917-0.291428-0.150787-0.429047l-2.368004-4.655655l-0.197853-0.411194l-0.103439-2.685104
				c8.947968,0.225616,18.842491,0.854065,29.224937,1.858322l0.000656,0.000107
				c0.978333,0.210403,1.964294,0.38707,2.953156,0.543213l5.265381,12.002441l0.713654,1.626862
				c0.144791,0.330032,0.385269,0.59549,0.676102,0.787399c0.237579,0.156815,0.507004,0.267273,0.800003,0.300766
				l11.911896,1.346664c0.118683,0.012466,0.237808,0.014557,0.353455,0.00528
				c0.610321-0.048935,1.165298-0.401215,1.466431-0.951675c0.357437-0.654541,0.283646-1.462021-0.188232-2.041016
				l-0.844147-1.036591l-1.566376-1.923737l-2.564026-3.149246l-1.978821-5.583588
				c6.61879,0.860062,13.074158,1.826828,19.255112,2.879272c0.977402,0.166443,1.942795,0.336426,2.906296,0.50705
				c1.86142,0.329697,3.694351,0.666931,5.498123,1.011353c0.466202,0.089111,0.92923,0.178787,1.391647,0.268845
				c2.962982,0.577026,5.842056,1.172165,8.618423,1.784515c0.473923,0.104568,0.941467,0.210297,1.409653,0.315811v0.000092
				c0.599869,0.135193,1.199097,0.27037,1.789398,0.407074c4.062256,0.941238,7.890564,1.916031,11.419662,2.916824
				C230.744217,196.790283,234.374008,200.579132,234.258804,201.512985z"/>
		</g>
	</g>
</g>
</svg>
